HIERARCHY
ROOT pelvis
{
  OFFSET 0 100 0
  CHANNELS 6 Xposition Yposition Zposition Zrotation Xrotation Yrotation
  JOINT pelvis_right_femur
  {
    OFFSET -10.78128 -3.44521 -0.5502486
    CHANNELS 3 Zrotation Xrotation Yrotation
    JOINT right_femur_tibia
    {
      OFFSET -0.8047443 -44.0398 -0.1307829
      CHANNELS 3 Zrotation Xrotation Yrotation
      JOINT right_tibia_foot
      {
        OFFSET 3.006224 -47.83518 -5
        CHANNELS 3 Zrotation Xrotation Yrotation
        End Site
        {
          OFFSET 0 -5 15
        }
      }
    }
  }
  JOINT pelvis_left_femur
  {
    OFFSET 10.78128 -3.44521 -0.5502486
    CHANNELS 3 Zrotation Xrotation Yrotation
    JOINT left_femur_tibia
    {
      OFFSET 0.8047443 -44.0398 -0.1307829
      CHANNELS 3 Zrotation Xrotation Yrotation
      JOINT left_tibia_foot
      {
        OFFSET -4.370144 -48.10324 -4.275266
        CHANNELS 3 Zrotation Xrotation Yrotation
        End Site
        {
          OFFSET 0 -5 15
        }
      }
    }
  }
  JOINT pelvis_spine1
  {
    OFFSET 0 6.468898 -3.129235
    CHANNELS 3 Zrotation Xrotation Yrotation
    JOINT spine1
    {
      OFFSET 0 23.15396 4.99043
      CHANNELS 3 Zrotation Xrotation Yrotation
      JOINT spine2
      {
        OFFSET 0 20.79997 -5.064912
        CHANNELS 3 Zrotation Xrotation Yrotation
        JOINT neck
        {
          OFFSET 0 14.38658 9.616178
          CHANNELS 3 Zrotation Xrotation Yrotation
          End Site
          {
            OFFSET 0 20 0
          }
        }
      }
      JOINT right_manubrium
      {
        OFFSET -5.722621 16.35077 3.967754
        CHANNELS 3 Zrotation Xrotation Yrotation
        JOINT right_clavicle
        {
          OFFSET -13.16364 1.694482 -4.693211
          CHANNELS 3 Zrotation Xrotation Yrotation
          JOINT right_humerus
          {
            OFFSET -28.5034 -0.3100689 -2.792744
            CHANNELS 3 Zrotation Xrotation Yrotation
            JOINT right_radius
            {
              OFFSET -25.15693 0.02248979 -1.271978
              CHANNELS 3 Zrotation Xrotation Yrotation
              End Site
              {
                OFFSET -15 0 0
              }
            }
          }
        }
      }
      JOINT left_manubrium
      {
        OFFSET 5.722621 16.35077 3.967754
        CHANNELS 3 Zrotation Xrotation Yrotation
        JOINT left_clavicle
        {
          OFFSET 13.16364 1.694482 -4.693211
          CHANNELS 3 Zrotation Xrotation Yrotation
          JOINT left_humerus
          {
            OFFSET 29.39168 -1.063119 -2.237045
            CHANNELS 3 Zrotation Xrotation Yrotation
            JOINT left_radius
            {
              OFFSET 24.59957 -0.9528479 0.9047498
              CHANNELS 3 Zrotation Xrotation Yrotation
              End Site
              {
                OFFSET 15 -0 -0
              }
            }
          }
        }
      }
    }
  }
}
MOTION
Frames: 15
Frame Time: 0.0416666666667
2120.763 99.73249 96.94858 -0.4919562 10.03688 177.8455 2.706512 -18.31787 4.393179 -0 20.78849 -0 -2.346696 -7.605161 -11.13 -3.839931 20.54296 -8.367267 -0 35.66978 -0 -9.121523 -15.06015 15.72794 -1.39261 0.7344876 1.558421 0.7412823 7.561979 -7.087339 3.488784 24.28756 4.080824 0.6215512 -15.68357 8.693865 -1.735612 -12.07866 8.028604 94.25924 20.19726 -22.45484 -0 0 5.425645 -16.22144 9.725012 4.49246 6.238826 -20.13731 -3.503516 -79.70107 25.86647 -0.9704964 0 0 -23.96461 3.502927 7.468931 8.187758
2121.92 100.4898 89.99023 0.09368835 10.1924 177.4435 3.991202 -15.32014 5.041539 -0 22.03749 -0 -3.058344 -7.839258 -10.74037 -3.26403 17.65625 -8.324655 -0 43.21683 -0 -9.406077 -12.22902 15.86234 -0.9946858 0.8842455 1.765407 1.054822 7.857856 -6.769028 3.567612 24.47359 3.677342 0.7375305 -15.48014 8.098466 -0.6788307 -12.06204 8.654877 93.00061 20.85541 -21.31056 -0 0 5.372438 -15.76535 9.890161 4.777877 5.306252 -19.43282 -3.726949 -81.37969 26.24173 1.598179 0 0 -21.60412 2.615966 8.808484 9.380855
2123.022 101.6572 83.28029 0.4834109 10.13393 176.7534 4.893312 -11.75608 5.548151 -0 22.0782 -0 -3.276163 -8.042923 -10.07352 -2.87378 13.28421 -8.026039 -0 50.18821 -0 -9.60481 -9.754209 16.06406 -0.7841124 1.031212 2.407805 1.300374 8.366263 -6.405322 3.5535 24.45795 3.446183 0.9829458 -15.45702 7.518935 0.4511645 -12.44038 9.326742 91.39465 21.69428 -20.02845 -0 0 6.111322 -15.78463 10.23305 5.439101 4.579461 -18.86832 -3.848984 -83.36576 26.32587 4.679419 0 0 -19.42261 1.619958 9.475885 10.68486
2124.031 102.9907 76.85546 0.6106442 9.982895 175.8634 5.349304 -7.684493 5.947475 -0 20.95658 -0 -3.033186 -8.244163 -9.179216 -2.599567 7.570565 -7.456796 -0 55.54417 -0 -9.631637 -7.953552 16.48589 -0.7739905 1.196426 3.445698 1.379927 9.034925 -5.955207 3.464102 24.27751 3.388666 1.304111 -15.56209 7.02715 1.422131 -13.25971 9.980133 89.61219 22.48432 -18.54008 -0 0 7.685827 -16.30672 10.64147 6.396475 4.152101 -18.49853 -3.84279 -85.45225 26.04487 7.965072 0 0 -17.67177 0.7334473 9.427924 11.84939
2124.924 104.1951 70.72616 0.4937658 9.837187 174.8759 5.389897 -3.265776 6.236431 -0 18.9799 -0 -2.492852 -8.640373 -8.145908 -2.286528 0.8687839 -6.671744 -0 57.97406 -0 -9.422042 -7.061906 17.1762 -0.928343 1.416505 4.702966 1.236061 9.698574 -5.376717 3.332403 24.02898 3.451185 1.621537 -15.63712 6.648235 2.054562 -14.45237 10.55534 87.74298 23.02314 -16.67944 -0 0 10.04196 -17.22901 10.97017 7.551997 4.042247 -18.26115 -3.720333 -87.44125 25.50391 11.14798 0 0 -16.41081 0.02911206 8.910805 12.7724
2125.685 104.9818 64.855 0.255419 9.717984 173.8866 5.14398 1.256143 6.350397 -0 16.70725 -0 -1.849067 -9.531327 -7.06924 -1.7569 -6.192549 -5.770971 -0 56.38119 -0 -8.97186 -7.035482 18.05062 -1.141024 1.696204 5.890528 0.879831 10.12724 -4.66262 3.18882 23.83235 3.549857 1.851583 -15.48853 6.358013 2.276017 -15.83999 11.00629 85.81753 23.17463 -14.29046 -0 0 12.97405 -18.37597 11.09425 8.819208 4.177597 -17.99142 -3.539537 -89.19052 24.92001 13.9877 0 0 -15.47752 -0.5639687 8.359072 13.49157
2126.303 105.1712 59.13284 0.05732419 9.512643 172.9584 4.771455 5.605739 6.198474 -0 14.79441 -0 -1.172695 -11.03349 -5.987347 -0.9385993 -12.87087 -4.859917 -0 50.75939 -0 -8.329306 -7.452471 18.88606 -1.286333 1.948222 6.760796 0.4082292 10.19005 -3.891814 3.034678 23.72951 3.626696 1.963547 -15.04119 6.092242 2.215985 -17.20585 11.3433 83.83101 22.99241 -11.42304 -0 0 16.12716 -19.62353 11.00628 10.17647 4.411005 -17.54711 -3.386153 -90.627 24.41048 16.41208 0 0 -14.60375 -1.144661 8.149875 14.09504
2126.77 104.7688 53.39553 -0.02096089 9.03625 172.1149 4.358916 9.508691 5.770634 -0 13.74281 -0 -0.4073364 -12.82764 -4.86884 0.03714731 -18.54922 -4.036336 -0 42.60698 -0 -7.567386 -7.768164 19.43179 -1.32402 2.012005 7.267917 -0.03881133 9.970863 -3.223656 2.842657 23.6379 3.69693 2.010646 -14.45742 5.804086 2.152718 -18.38332 11.62284 81.81502 22.7631 -8.447162 -0 0 19.07329 -20.93178 10.82727 11.61411 4.59883 -16.95151 -3.304253 -91.70634 23.90675 18.47938 0 0 -13.63635 -1.687179 8.349272 14.59093
2127.097 103.9396 47.48514 -0.02066027 8.234056 171.3598 3.892454 12.73967 5.203873 -0 13.81772 -0 0.4491902 -14.31306 -3.723699 0.877842 -22.81491 -3.427849 -0 34.19335 -0 -6.768256 -7.713066 19.59797 -1.329386 1.781433 7.535782 -0.3675044 9.664433 -2.788959 2.61184 23.46015 3.80392 2.066276 -14.02111 5.521695 2.268248 -19.2795 11.85954 79.92911 22.7874 -5.872935 -0 0 21.43965 -22.22433 10.67544 13.00862 4.666603 -16.34612 -3.260146 -92.41364 23.34991 20.23364 0 0 -12.58162 -2.067505 8.740606 14.91194
2127.315 102.9149 41.3008 -0.03423337 7.294099 170.6976 3.313398 15.19619 4.706056 -0 15.19936 -0 1.269159 -14.96931 -2.698244 1.271238 -25.45438 -3.206498 -0 27.37903 -0 -6.008666 -7.37855 19.48924 -1.412834 1.294831 7.702568 -0.5754443 9.404754 -2.590263 2.406994 23.20129 3.93369 2.144988 -13.88683 5.321693 2.517813 -19.85668 11.99948 78.4507 23.10905 -4.045598 -0 0 23.03182 -23.33269 10.56778 14.14072 4.59914 -15.81911 -3.203375 -92.80678 22.82334 21.6662 0 0 -11.45507 -2.232626 9.089677 15.04492
2127.458 101.9197 34.81007 -0.1372786 6.528958 170.1493 2.578465 16.88921 4.420476 -0 18.08525 -0 1.914145 -14.51464 -2.004518 1.024491 -26.48079 -3.504656 -0 23.05247 -0 -5.333629 -7.015364 19.26216 -1.648387 0.6913249 7.837485 -0.7181743 9.235579 -2.528666 2.314272 22.94811 4.015353 2.211195 -13.99416 5.250595 2.76483 -20.11763 12.00247 77.62599 23.53179 -3.037891 -0 0 23.84787 -24.09879 10.46392 14.84413 4.407592 -15.36048 -3.132756 -92.99017 22.43748 22.7654 0 0 -10.22336 -2.253439 9.32091 15.06594
2127.552 101.1469 28.04442 -0.3617477 6.179167 169.765 1.699522 17.82189 4.367529 -0 22.62283 -0 2.339627 -12.8983 -1.786239 0.136398 -26.0835 -4.314328 -0 21.19646 -0 -4.737018 -6.853318 19.01712 -2.05534 0.1162617 7.943612 -0.853174 9.170729 -2.505398 2.368441 22.77961 3.9966 2.231726 -14.18924 5.296385 2.942579 -20.09805 11.89813 77.53734 23.84471 -2.750951 -0 0 23.99088 -24.47089 10.34377 15.09134 4.121605 -14.94786 -3.09028 -93.0345 22.21725 23.52824 0 0 -8.9054 -2.230341 9.473668 15.06587
2127.604 100.756 21.09259 -0.690504 6.287416 169.6257 0.7626735 17.85547 4.482336 -0 28.80446 -0 2.598959 -10.27456 -2.055449 -1.221645 -24.47998 -5.471206 -0 21.17501 -0 -4.179227 -7.046001 18.77538 -2.594316 -0.3412907 7.98644 -1.004822 9.236082 -2.506084 2.515821 22.69389 3.911954 2.207347 -14.39477 5.421773 3.087784 -19.8688 11.75898 78.09888 24.00929 -3.078172 -0 0 23.5952 -24.50382 10.24715 14.97304 3.790274 -14.62185 -3.115377 -92.93248 22.11981 23.95706 0 0 -7.691007 -2.210384 9.539516 15.11187
2127.608 100.871 14.08327 -1.072925 6.660573 169.8251 -0.08302318 16.65998 4.684572 -0 36.37907 -0 2.812448 -6.945721 -2.702542 -2.775735 -21.82056 -6.695029 -0 22.06367 -0 -3.643512 -7.694455 18.46867 -3.174256 -0.6672077 7.933608 -1.150105 9.482241 -2.639946 2.610009 22.56927 3.909981 2.184504 -14.7191 5.597898 3.310383 -19.54443 11.65841 79.12593 24.23373 -4.041833 -0 0 22.81513 -24.32226 10.29124 14.64281 3.476752 -14.50544 -3.208616 -92.60831 22.09271 24.08176 0 0 -6.985043 -2.182087 9.317311 15.26221
2127.541 101.5649 7.153461 -1.444995 6.906827 170.4423 -0.6535808 13.78206 4.926492 -0 44.72376 -0 3.147027 -3.292464 -3.543563 -4.220348 -18.21823 -7.637893 -0 22.9157 -0 -3.216257 -8.896867 17.93702 -3.673844 -0.9039106 7.789882 -1.214268 9.976017 -3.13411 2.429472 22.16902 4.236368 2.255417 -15.47395 5.810901 3.755236 -19.28508 11.65619 80.41821 24.94267 -5.856619 -0 0 21.84799 -24.10099 10.66427 14.27413 3.257644 -14.77895 -3.317849 -91.96441 22.11359 23.98428 0 0 -7.341705 -2.120439 8.364459 15.58138
